<svg width="393" height="501" viewBox="0 0 393 501" fill="none" xmlns="http://www.w3.org/2000/svg">
<path d="M199.767 245.281L58.0977 251.31" stroke="#A0A0A0" stroke-width="5" stroke-linecap="round"/>
<path d="M201.273 245.281L388.157 261.86" stroke="#A0A0A0" stroke-width="5" stroke-linecap="round"/>
<path d="M389.664 261.859L351.986 436.686" stroke="#A0A0A0" stroke-width="5" stroke-linecap="round"/>
<path d="M351.988 436.688L196.754 463.816" stroke="#A0A0A0" stroke-width="5" stroke-linecap="round"/>
<path d="M196.754 462.308V276.932" stroke="#A0A0A0" stroke-width="5" stroke-linecap="round"/>
<path d="M196.754 278.438L388.159 263.367" stroke="#A0A0A0" stroke-width="5" stroke-linecap="round"/>
<path d="M196.753 278.439L58.0977 251.311" stroke="#A0A0A0" stroke-width="5" stroke-linecap="round"/>
<path d="M55.084 251.311L64.1267 389.966" stroke="#A0A0A0" stroke-width="5" stroke-linecap="round"/>
<path d="M64.125 389.965L196.752 463.814" stroke="#A0A0A0" stroke-width="5" stroke-linecap="round"/>
<path d="M198.26 245.281V275.424" stroke="#A0A0A0" stroke-width="5" stroke-linecap="round"/>
<rect x="266.653" y="320.683" width="55.6513" height="29.6579" rx="7.5" transform="rotate(-3.53924 266.653 320.683)" stroke="#A0A0A0" stroke-width="5"/>
<path d="M140.643 111.513C151.946 110.005 176.211 101.415 182.842 79.1094" stroke="black" stroke-width="5" stroke-linecap="round"/>
<path d="M103.717 93.4282C111.252 93.6794 128.584 89.9618 137.627 73.082" stroke="black" stroke-width="5" stroke-linecap="round"/>
<path d="M69.8066 66.2987C81.8636 63.7947 108.088 55.9961 116.527 44.834" stroke="black" stroke-width="5" stroke-linecap="round"/>
<path d="M179.051 149.365C102.549 166.607 31.2378 89.6311 3.67853 46.9447C2.97611 45.8568 3.51629 44.438 4.7441 44.0262L125.867 3.40614C126.605 3.15848 127.416 3.35998 127.958 3.92005C168.49 45.8555 245.247 63.7612 283.487 68.1664C285.314 68.3769 285.934 70.7369 284.454 71.8286L179.794 149.025C179.574 149.188 179.318 149.304 179.051 149.365Z" stroke="black" stroke-width="5" stroke-linecap="round"/>
<path d="M195.67 501L60.3594 390.227L196 465.583L355.756 437.701L370.827 439.962L195.67 501Z" fill="#A0A0A0"/>
</svg>
