<svg width="606" height="503" viewBox="0 0 606 503" fill="none" xmlns="http://www.w3.org/2000/svg">
<path d="M289.747 402.923H68.8711C57.8254 402.923 48.8711 393.969 48.8711 382.923V23C48.8711 11.9543 57.8254 3 68.8711 3H238.82C244.124 3 249.211 5.10714 252.962 8.85786L312.702 68.5981C316.453 72.3489 321.54 74.456 326.844 74.456H583.231C594.277 74.456 603.231 83.4103 603.231 94.456V382.923C603.231 393.969 594.277 402.923 583.231 402.923H554.826" stroke="#A0A0A0" stroke-width="5" stroke-linecap="round"/>
<path d="M50.0227 36.4238H22.7695C11.7238 36.4238 2.76953 45.3781 2.76953 56.4238V382.924C2.76953 393.97 11.7239 402.924 22.7696 402.924H94.9708" stroke="#A0A0A0" stroke-width="5" stroke-linecap="round"/>
<path d="M289.746 8.76175H491.436C506.419 8.76175 536.154 8.53121 535.232 49.0998" stroke="#A0A0A0" stroke-width="5" stroke-linecap="round"/>
<path d="M446.496 307.264C460.326 316.484 463.784 319.941 469.546 336.077" stroke="black" stroke-width="5" stroke-linecap="round"/>
<path d="M459.166 423.914L526.027 490.775C532.779 497.527 543.725 497.527 550.476 490.775V490.775C557.227 484.024 557.227 473.078 550.476 466.327L483.615 399.466" stroke="black" stroke-width="5" stroke-linecap="round"/>
<circle cx="419.981" cy="351.059" r="80.4812" stroke="black" stroke-width="5"/>
</svg>
